<?xml version="1.0" encoding="UTF-8" standalone="no"?>
<!DOCTYPE svg PUBLIC "-//W3C//DTD SVG 1.1//EN" "http://www.w3.org/Graphics/SVG/1.1/DTD/svg11.dtd">
<svg width="100%" height="100%" viewBox="0 0 1000 714" version="1.1" xmlns="http://www.w3.org/2000/svg" xmlns:xlink="http://www.w3.org/1999/xlink" xml:space="preserve" xmlns:serif="http://www.serif.com/" style="fill-rule:evenodd;clip-rule:evenodd;stroke-linejoin:round;stroke-miterlimit:2;">
    <path id="path8" d="M361.986,0.001C348.731,0.055 239.075,3.167 123.393,89.125C123.393,89.125 0,311.063 0,584.414C0,584.414 71.978,707.806 261.353,713.804C261.353,713.804 293.058,676.1 318.765,643.538C209.939,610.976 168.808,543.284 168.808,543.284C168.808,543.284 177.379,549.281 192.803,557.85C193.66,557.85 194.514,558.705 196.228,559.562C198.799,561.276 201.37,562.133 203.941,563.847C225.363,575.844 246.785,585.271 266.494,592.983C301.626,607.55 343.616,620.402 392.459,629.828C456.726,641.825 532.132,646.109 614.394,630.684C654.669,622.972 695.802,611.834 738.647,593.839C768.639,582.699 802.056,566.42 837.189,543.284C837.189,543.284 794.345,612.692 682.091,644.398C707.798,676.103 738.647,712.948 738.647,712.948C928.022,706.949 1000,583.557 1000,584.414C1000,311.063 876.607,89.125 876.607,89.125C754.07,-2.563 636.673,0.008 636.673,0.008L624.679,13.718C770.352,57.42 838.045,121.689 838.045,121.689C748.928,73.702 661.526,49.708 580.121,40.282C518.424,33.427 459.296,35.142 407.025,41.998C401.884,41.998 397.6,42.853 392.459,43.71C362.468,47.138 289.632,57.42 197.944,97.694C166.238,111.404 147.385,121.689 147.385,121.689C147.385,121.689 217.651,53.992 371.892,10.29L363.323,0.008C363.323,0.008 362.869,-0.002 361.986,0.001L361.986,0.001ZM340.188,316.204C389.031,316.204 428.449,358.191 427.592,410.462C427.592,462.732 389.031,504.722 340.188,504.722C292.201,504.722 252.784,462.732 252.784,410.462C252.784,358.191 291.345,316.204 340.188,316.204ZM652.956,316.204C700.942,316.204 740.36,358.191 740.36,410.462C740.36,462.732 701.799,504.722 652.956,504.722C604.969,504.722 565.551,462.732 565.551,410.462C565.551,358.191 604.112,316.204 652.956,316.204Z" style="fill-rule:nonzero;"/>
</svg>
