<?xml version="1.0" encoding="UTF-8" standalone="no"?>
<!DOCTYPE svg PUBLIC "-//W3C//DTD SVG 1.1//EN" "http://www.w3.org/Graphics/SVG/1.1/DTD/svg11.dtd">
<svg width="100%" height="100%" viewBox="0 0 1000 714" version="1.1" xmlns="http://www.w3.org/2000/svg" xmlns:xlink="http://www.w3.org/1999/xlink" xml:space="preserve" xmlns:serif="http://www.serif.com/" style="fill-rule:evenodd;clip-rule:evenodd;stroke-linecap:round;stroke-linejoin:round;stroke-miterlimit:1.5;">
    <path d="M1000,99.862C1000,73.377 989.479,47.977 970.751,29.249C952.023,10.521 926.623,-0 900.138,0L99.862,0C73.377,-0 47.977,10.521 29.249,29.249C10.521,47.977 0,73.377 -0,99.862L0,613.942C0,640.427 10.521,665.827 29.249,684.555C47.977,703.283 73.377,713.804 99.862,713.804L900.138,713.804C926.623,713.804 952.023,703.283 970.751,684.555C989.479,665.827 1000,640.427 1000,613.942L1000,99.862ZM911.812,99.862L911.812,613.942C911.812,617.038 910.582,620.008 908.393,622.197C906.204,624.386 903.234,625.616 900.138,625.616C708.554,625.616 291.446,625.616 99.862,625.616C96.766,625.616 93.796,624.386 91.607,622.197C89.418,620.008 88.188,617.038 88.188,613.942C88.188,613.942 88.188,99.862 88.188,99.862C88.188,96.766 89.418,93.796 91.607,91.607C93.796,89.418 96.766,88.188 99.862,88.188C291.446,88.188 708.554,88.188 900.138,88.188C903.234,88.188 906.204,89.418 908.393,91.607C910.582,93.796 911.812,96.766 911.812,99.862Z"/>
    <g transform="matrix(1,0,0,0.859906,0,138)">
        <path d="M0,0L500,356.902L1000,0" style="fill:none;stroke:black;stroke-width:91.4px;"/>
    </g>
    <g transform="matrix(1.07503,-0.0328484,-0.023437,0.723752,16.7294,59.1868)">
        <path d="M0,713.804L348.966,499.676" style="fill:none;stroke:black;stroke-width:69.25px;"/>
    </g>
    <g transform="matrix(1.11599,0.0507811,0.0362319,0.729354,-141.853,4.40725)">
        <path d="M665.999,508.858L1000,713.804" style="fill:none;stroke:black;stroke-width:62.62px;"/>
    </g>
</svg>
